<svg xmlns="http://www.w3.org/2000/svg" viewBox="0 0 40 40">
  <rect width="40" height="40" rx="10" fill="url(#g)"/>
  <path d="M10 26C10 22.134 13.134 19 17 19C17.34 19 17.675 19.024 18 19.071C18.622 16.71 20.812 15 23.5 15C26.538 15 29 17.462 29 20.5C29 20.667 28.99 20.832 28.971 20.994C30.18 21.478 31 22.645 31 24C31 25.657 29.657 27 28 27H12C10.895 27 10 26.105 10 25V26Z" fill="white" opacity="0.9"/>
  <path d="M20 22V30M20 30L17 27M20 30L23 27" stroke="white" stroke-width="1.5" stroke-linecap="round" stroke-linejoin="round"/>
  <defs>
    <linearGradient id="g" x1="0" y1="0" x2="40" y2="40" gradientUnits="userSpaceOnUse">
      <stop stop-color="#6366f1"/>
      <stop offset="1" stop-color="#8b5cf6"/>
    </linearGradient>
  </defs>
</svg>
